<svg xmlns="http://www.w3.org/2000/svg" width="26" height="24" viewBox="0 0 26 24">
    <path fill="#5C617A" fill-rule="nonzero" d="M24.473 6.766a2.956 2.956 0 0 0-2.08-.843c-.786 0-1.524.3-2.08.843l-2.225 2.176V1.494h-4.152V0h-1.63v1.494h-2.28V0h-1.63v1.494h-2.28V0h-1.63v1.494H.333V24h17.755v-6.922l6.385-6.244a2.835 2.835 0 0 0 0-4.068zm-8.015 15.64H1.964V3.087h2.522v1.494h1.63V3.088h2.28v1.494h1.63V3.088h2.28v1.494h1.63V3.088h2.522v7.448l-2.507 2.452v-1.482h-9.48v1.595h9.364l-1.615 1.58-.18.652H4.47v1.595h7.13l-.614 2.232H4.47v1.594h9.481V19.39l2.429-.64.078-.076v3.732zm-2.074-4.783l-1.387.366.374-1.357 1.013.991zm1.573-.716l-1.854-1.813 6.23-6.092 1.853 1.813-6.229 6.092zm7.381-7.22l-1.852-1.812c.245-.23.566-.357.907-.357.35 0 .68.133.927.375.505.494.51 1.293.018 1.794z"/>
</svg>
