<?xml version="1.0" encoding="UTF-8"?>
<svg width="28px" height="27px" viewBox="0 0 28 27" version="1.1" xmlns="http://www.w3.org/2000/svg" xmlns:xlink="http://www.w3.org/1999/xlink">
    <!-- Generator: Sketch 53.2 (72643) - https://sketchapp.com -->
    <title>Group</title>
    <desc>Created with Sketch.</desc>
    <g id="Symbols" stroke="none" stroke-width="1" fill="none" fill-rule="evenodd">
        <g id="Artboard" transform="translate(-31.000000, -24.000000)">
            <g id="Group" transform="translate(32.000000, 25.000000)">
                <path d="M26,12.6139957 C26,20.7598185 19.5265306,24.9873974 13.3360544,24.9873974 C6.79183673,25.2623619 1.41423577e-14,21.0347829 1.41423577e-14,12.6139957 C1.41423577e-14,4.1588378 6.79183673,0 13.3360544,0 C19.5265306,0.309335043 26,4.46817285 26,12.6139957 Z" id="Combined-Shape" stroke="#5C617A" stroke-width="1.5"></path>
                <g id="Group-5" transform="translate(8.000000, 7.000000)" fill="#5C617A" fill-rule="nonzero">
                    <path d="M2.33334161,7.10542736e-15 L0.666658389,7.10542736e-15 C0.298465397,7.10542736e-15 0,0.40954114 0,0.914645286 L0,10.9759989 C0,11.4811542 0.298465397,11.8906442 0.666658389,11.8906442 L2.33334161,11.8906442 C2.7015346,11.8906442 3,11.4811542 3,10.9759989 L3,0.914645286 C2.99996275,0.40954114 2.70149736,7.10542736e-15 2.33334161,7.10542736e-15 Z M8.77859535,0 L7.11193282,0 C6.74370715,0 6.44524546,0.40954114 6.44524546,0.914645286 L6.44524546,10.9759989 C6.44524546,11.4811542 6.74370715,11.8906442 7.11193282,11.8906442 L8.77859535,11.8906442 C9.14678377,11.8906442 9.44524546,11.4811542 9.44524546,10.9759989 L9.44524546,0.914645286 C9.44528271,0.40954114 9.14678377,0 8.77859535,0 Z" id="Pause-Copy-11"></path>
                </g>
            </g>
        </g>
    </g>
</svg>