<svg xmlns="http://www.w3.org/2000/svg" width="44" height="54" viewBox="0 0 44 54">
    <g fill="#FF5D86" fill-rule="nonzero">
        <path d="M38 20.113V14.5C38 6.505 30.822 0 22 0S6 6.505 6 14.5v5.613c-3.401.586-6 3.55-6 7.117v19.542C0 50.757 3.243 54 7.229 54h29.542C40.757 54 44 50.757 44 46.771V27.229c0-3.566-2.599-6.53-6-7.116zM8 14.5C8 7.607 14.28 2 22 2s14 5.607 14 12.5V20H8v-5.5zm34 32.271A5.235 5.235 0 0 1 36.771 52H7.229A5.235 5.235 0 0 1 2 46.771V27.229A5.235 5.235 0 0 1 7.229 22h29.542A5.235 5.235 0 0 1 42 27.229v19.542z"/>
        <path d="M22 28c-2.206 0-4 1.794-4 4v6c0 2.206 1.794 4 4 4s4-1.794 4-4v-6c0-2.206-1.794-4-4-4zm2 10c0 1.103-.897 2-2 2s-2-.897-2-2v-6c0-1.103.897-2 2-2s2 .897 2 2v6z"/>
    </g>
</svg>
