<svg xmlns="http://www.w3.org/2000/svg" xmlns:xlink="http://www.w3.org/1999/xlink" width="168" height="23" viewBox="0 0 168 23">
    <defs>
        <path id="b" d="M11.334 19.093L18.339 3.7c.934-2.285-2.253-3.607-3.352-1.514L12.542 7.72l-3.104 7.27L6.28 7.72 3.834 2.187C2.625-.1-.616 1.69.455 3.867l7.253 15.226c1.043 2.148 2.994 1.735 3.626 0zm44.7-17.154c-1.263-1.928-4.477.192-2.747 2.258 1.676 1.955 3.352 4.075 5.082 6.25l-5.521 7.021c-1.566 1.873 1.538 4.13 2.94 2.12l4.971-6.635 5.055 6.498c1.483 2.037 4.505.055 2.994-2.01l-5.604-6.994a155.333 155.333 0 0 1 5.027-6.25c1.566-1.79-1.208-4.186-2.637-2.313l-4.78 6.002-4.78-5.947zM87.45 14.853c-.412 3.91-6.208 2.753-8.461 1.211-.934-.77-1.73-.523-2.445.193-.494.743-.522 1.955.385 2.698 3.79 3.14 13.9 2.974 14.092-4.02.193-7.324-11.757-4.736-11.016-9.252.577-2.863 5.192-2.257 7.225-.963 1.649 1.211 3.626-1.184 1.758-2.699-3.79-2.918-11.84-1.955-12.471 3.387-.852 7.82 10.576 5.37 10.933 9.445zm12.104 3.579c0 1.212.879 1.9 1.868 1.9.989 0 1.73-.688 1.73-1.9V7.804l9.093 11.564c.797.744 1.264.964 2.225.964.715-.22 1.456-.688 1.456-1.9V2.93c0-.909-.961-1.9-1.95-1.9-.934 0-1.73.991-1.73 1.9v10.683l-9.094-11.399c-.741-.716-.961-.964-1.95-.964-1.429 0-1.648.964-1.648 1.955v15.227zm27.597.964c-.44.936-1.456 1.129-2.445.936-.88-.496-1.429-1.487-.88-2.643l7.885-15.447c.742-1.46 2.72-1.515 3.406 0l7.747 15.447c1.127 2.147-2.197 3.854-3.186 1.707l-1.21-2.423h-10.136l-1.181 2.423zm2.884-6.058h6.484l-3.105-6.801-3.379 6.801zm20.702 5.094V2.93c0-.909.715-1.9 1.868-1.9h6.346c3.571 0 6.786 2.396 6.786 6.994 0 4.35-3.215 6.773-6.786 6.773h-4.587v3.635c0 1.212-.77 1.9-1.759 1.9-.906 0-1.868-.688-1.868-1.9zm8.214-13.933h-4.587v6.857h4.587c1.84 0 3.297-1.625 3.297-3.332 0-1.928-1.456-3.525-3.297-3.525z"/>
        <filter id="a" width="101.8%" height="114.6%" x="-.9%" y="-7.3%" filterUnits="objectBoundingBox">
            <feOffset in="SourceAlpha" result="shadowOffsetOuter1"/>
            <feGaussianBlur in="shadowOffsetOuter1" result="shadowBlurOuter1" stdDeviation=".5"/>
            <feColorMatrix in="shadowBlurOuter1" values="0 0 0 0 0 0 0 0 0 0 0 0 0 0 0 0 0 0 0.24535779 0"/>
        </filter>
    </defs>
    <g fill="none" fill-rule="evenodd">
        <g transform="translate(1 1)">
            <use fill="#000" filter="url(#a)" xlink:href="#b"/>
            <use fill="#FF5D86" xlink:href="#b"/>
        </g>
        <path fill="#FF5D86" d="M46 12.091c0 6.517-4.98 9.899-9.741 9.899C31.224 22.21 26 18.828 26 12.09 26 5.327 31.224 2 36.259 2 41.02 2.247 46 5.575 46 12.091zm-5.066 1.012a.876.876 0 0 0 0-1.48l-6.908-4.362a.853.853 0 0 0-.876-.023.874.874 0 0 0-.445.763v8.725c0 .317.17.61.445.763a.854.854 0 0 0 .876-.023l6.908-4.363z"/>
    </g>
</svg>
